<?xml version="1.0" encoding="UTF-8" standalone="no"?>
<!DOCTYPE svg PUBLIC "-//W3C//DTD SVG 1.1//EN"
 "http://www.w3.org/Graphics/SVG/1.1/DTD/svg11.dtd">
<!-- Generated by graphviz version 2.26.3 (20100126.1600)
 -->
<!-- Title: G Pages: 1 -->
<svg width="112pt" height="206pt"
 viewBox="0.00 0.00 112.00 206.00" xmlns="http://www.w3.org/2000/svg" xmlns:xlink="http://www.w3.org/1999/xlink">
<g id="graph1" class="graph" transform="scale(1 1) rotate(0) translate(4 202)">
<title>G</title>
<polygon fill="white" stroke="white" points="-4,5 -4,-202 109,-202 109,5 -4,5"/>
<g id="graph2" class="cluster"><title>cluster_Global</title>
<polyline fill="none" stroke="gray" points="20,-8 84,-8 "/>
<path fill="none" stroke="gray" d="M84,-8C90,-8 96,-14 96,-20"/>
<polyline fill="none" stroke="gray" points="96,-20 96,-178 "/>
<path fill="none" stroke="gray" d="M96,-178C96,-184 90,-190 84,-190"/>
<polyline fill="none" stroke="gray" points="84,-190 20,-190 "/>
<path fill="none" stroke="gray" d="M20,-190C14,-190 8,-184 8,-178"/>
<polyline fill="none" stroke="gray" points="8,-178 8,-20 "/>
<path fill="none" stroke="gray" d="M8,-20C8,-14 14,-8 20,-8"/>
<text text-anchor="middle" x="52" y="-176.1" font-family="Times Roman,serif" font-size="11.00" fill="gray">\</text>
</g>
<!-- \\alert -->
<g id="node2" class="node"><title>\\alert</title>
<polygon fill="none" stroke="black" points="79,-160 25,-160 25,-124 79,-124 79,-160"/>
<text text-anchor="middle" x="52" y="-139.1" font-family="Courier,monospace" font-size="11.00">alert</text>
</g>
<!-- \\panel -->
<g id="node3" class="node"><title>\\panel</title>
<polygon fill="none" stroke="black" points="79,-106 25,-106 25,-70 79,-70 79,-106"/>
<text text-anchor="middle" x="52" y="-85.1" font-family="Courier,monospace" font-size="11.00">panel</text>
</g>
<!-- \\altpanel -->
<g id="node4" class="node"><title>\\altpanel</title>
<polygon fill="none" stroke="black" points="87,-52 17,-52 17,-16 87,-16 87,-52"/>
<text text-anchor="middle" x="52" y="-31.1" font-family="Courier,monospace" font-size="11.00">altpanel</text>
</g>
</g>
</svg>
